<svg width="16" height="16" viewBox="0 0 381 381" fill="none" xmlns="http://www.w3.org/2000/svg">
<path fill-rule="evenodd" clip-rule="evenodd" d="M0 190.5C0 92.0407 74.6954 11.0275 170.51 1.03623C116.195 51.1565 123.291 94.526 168 182C200.345 263.963 185.155 306.173 130.986 371.519C54.9218 346.527 0 274.927 0 190.5ZM189 182C231.692 262.193 209.048 304.663 149.641 376.608C162.804 379.484 176.475 381 190.5 381C295.71 381 381 295.71 381 190.5C381 85.2898 295.71 0 190.5 0C188.685 0 186.877 0.0253749 185.074 0.0757873C124.523 48.5089 131.675 91.3078 189 182ZM199.063 26.3762C204.23 25.4651 207.719 20.7583 206.856 15.8633C205.993 10.9682 201.104 7.73858 195.937 8.64966C190.77 9.56074 187.281 14.2675 188.144 19.1626C189.007 24.0576 193.896 27.2873 199.063 26.3762ZM190.164 47.3208C188.726 55.4793 181.166 60.9657 173.28 59.5751C165.393 58.1845 160.166 50.4435 161.605 42.285C163.043 34.1266 170.603 28.6402 178.489 30.0308C186.376 31.4214 191.603 39.1624 190.164 47.3208ZM181.347 108.71C191.467 105.026 196.532 93.4157 192.659 82.7766C188.787 72.1376 177.444 66.4989 167.324 70.1823C157.204 73.8657 152.139 85.4764 156.011 96.1154C159.884 106.754 171.227 112.393 181.347 108.71ZM227.033 126.605C237.577 137.149 238.527 153.295 229.154 162.667C219.782 172.04 203.636 171.09 193.092 160.546C182.548 150.002 181.598 133.856 190.971 124.483C200.343 115.111 216.489 116.061 227.033 126.605ZM255.175 217.054C265.436 212.269 269.591 199.464 264.456 188.452C259.321 177.44 246.84 172.392 236.579 177.177C226.318 181.961 222.163 194.767 227.298 205.779C232.433 216.791 244.913 221.839 255.175 217.054ZM266.609 261.962C262.831 272.341 251.985 277.923 242.384 274.428C232.783 270.934 228.063 259.686 231.84 249.307C235.618 238.927 246.464 233.346 256.065 236.84C265.666 240.335 270.387 251.582 266.609 261.962ZM223.839 311.984C228.72 316.865 237.744 315.756 243.994 309.506C250.243 303.257 251.352 294.233 246.471 289.352C241.589 284.47 232.565 285.579 226.316 291.829C220.066 298.078 218.957 307.102 223.839 311.984ZM199.431 336.582C197.536 331.375 202.545 324.772 210.618 321.833C218.691 318.895 226.772 320.734 228.668 325.941C230.563 331.147 225.554 337.75 217.481 340.689C209.407 343.627 201.326 341.788 199.431 336.582ZM190.341 359.034C194.964 358.218 198.129 354.251 197.41 350.171C196.691 346.092 192.36 343.446 187.737 344.261C183.113 345.077 179.949 349.044 180.668 353.123C181.387 357.203 185.718 359.849 190.341 359.034Z" fill="#E6E6FA"/>
</svg>
