<svg width="48" height="48" viewBox="0 0 48 48" fill="none" xmlns="http://www.w3.org/2000/svg">
<path fill-rule="evenodd" clip-rule="evenodd" d="M0 24C0 11.5957 9.41044 1.38929 21.4816 0.130551C14.6387 6.44492 15.5328 11.9088 21.1653 22.9291C25.2404 33.2552 23.3266 38.573 16.5022 46.8056C6.91928 43.6569 0 34.6365 0 24ZM23.811 22.9291C29.1896 33.0321 26.3368 38.3828 18.8524 47.4467C20.5107 47.8091 22.233 48 24 48C37.2548 48 48 37.2548 48 24C48 10.7452 37.2548 0 24 0C23.7714 0 23.5435 0.0031968 23.3164 0.00954815C15.688 6.11136 16.589 11.5033 23.811 22.9291ZM25.0788 3.32299C25.7297 3.2082 26.1693 2.61522 26.0606 1.99852C25.9518 1.38182 25.336 0.974937 24.685 1.08972C24.034 1.2045 23.5945 1.79748 23.7032 2.41418C23.812 3.03088 24.4278 3.43777 25.0788 3.32299ZM23.9577 5.96168C23.7765 6.98952 22.8241 7.68072 21.8305 7.50552C20.8369 7.33033 20.1784 6.35508 20.3596 5.32725C20.5409 4.29942 21.4933 3.60822 22.4868 3.78341C23.4804 3.95861 24.1389 4.93385 23.9577 5.96168ZM22.8468 13.6957C24.1218 13.2317 24.7599 11.7689 24.2721 10.4285C23.7842 9.0882 22.3552 8.37781 21.0802 8.84187C19.8052 9.30592 19.1671 10.7687 19.655 12.109C20.1428 13.4494 21.5719 14.1598 22.8468 13.6957ZM28.6026 15.9502C29.931 17.2786 30.0506 19.3127 28.8698 20.4935C27.689 21.6743 25.6549 21.5547 24.3265 20.2263C22.9981 18.8979 22.8785 16.8638 24.0593 15.683C25.2401 14.5022 27.2742 14.6218 28.6026 15.9502ZM32.148 27.3454C33.4407 26.7426 33.9643 25.1293 33.3173 23.7419C32.6704 22.3546 31.098 21.7186 29.8053 22.3215C28.5125 22.9243 27.989 24.5376 28.6359 25.9249C29.2828 27.3123 30.8552 27.9482 32.148 27.3454ZM33.5886 33.003C33.1126 34.3107 31.7462 35.0139 30.5366 34.5736C29.327 34.1333 28.7323 32.7164 29.2082 31.4087C29.6842 30.101 31.0506 29.3979 32.2602 29.8381C33.4698 30.2784 34.0645 31.6954 33.5886 33.003ZM28.2002 39.305C28.8152 39.92 29.952 39.7803 30.7393 38.9929C31.5267 38.2056 31.6664 37.0688 31.0514 36.4538C30.4364 35.8388 29.2996 35.9785 28.5122 36.7658C27.7249 37.5532 27.5851 38.69 28.2002 39.305ZM25.1252 42.404C24.8865 41.748 25.5174 40.9161 26.5346 40.5459C27.5517 40.1757 28.5697 40.4074 28.8085 41.0634C29.0472 41.7193 28.4163 42.5512 27.3991 42.9214C26.382 43.2916 25.364 43.06 25.1252 42.404ZM23.98 45.2326C24.5624 45.1299 24.9611 44.63 24.8705 44.1161C24.7799 43.6022 24.2343 43.2688 23.6518 43.3715C23.0694 43.4742 22.6707 43.9741 22.7613 44.488C22.8519 45.0019 23.3976 45.3353 23.98 45.2326Z" fill="#000000"/>
</svg>
