<svg width="16" height="17" viewBox="0 0 16 17" fill="none" xmlns="http://www.w3.org/2000/svg">
<path fill-rule="evenodd" clip-rule="evenodd" d="M7.13182 0.000154955C3.1219 0.435421 0 3.85105 0 8.00011C0 11.5815 2.32609 14.6164 5.54154 15.6598C7.67722 13.5765 8.82426 12.0718 7.11111 8.89379C4.71327 4.44567 4.66132 2.24955 7.13182 0.000154955ZM7.27544 16.0143C9.78397 14.4314 11.865 12.5103 11.1111 8.89379C10.8056 7.428 10.0823 6.31386 9.42807 5.3059C8.33745 3.62572 7.43835 2.2406 8.98448 0.013644C12.9383 0.501677 16 3.89125 16 8.00011C16 12.4442 12.4183 16.0469 8 16.0469C7.75577 16.0469 7.51409 16.0359 7.27544 16.0143Z" fill="#000000"/>
</svg>
