<svg width="72" height="72" viewBox="0 0 72 72" fill="none" xmlns="http://www.w3.org/2000/svg">
<path fill-rule="evenodd" clip-rule="evenodd" d="M0 36C0 17.3935 14.1157 2.08394 32.2224 0.195826C21.958 9.66738 23.2991 17.8632 31.748 34.3937C37.8605 49.8828 34.9898 57.8595 24.7534 70.2084C10.3789 65.4853 0 51.9547 0 36ZM35.7165 34.3937C43.7843 49.5482 39.5052 57.5741 28.2787 71.17C30.766 71.7136 33.3496 72 36 72C55.8823 72 72 55.8823 72 36C72 16.1178 55.8823 0 36 0C35.6571 0 35.3152 0.0047952 34.9746 0.0143222C23.532 9.16704 24.8835 17.255 35.7165 34.3937ZM37.6182 4.98448C38.5946 4.81231 39.254 3.92283 39.0908 2.99778C38.9277 2.07273 38.0039 1.46241 37.0275 1.63458C36.0511 1.80675 35.3917 2.69623 35.5548 3.62127C35.7179 4.54632 36.6417 5.15665 37.6182 4.98448ZM35.9366 8.94252C35.6647 10.4843 34.2361 11.5211 32.7458 11.2583C31.2554 10.9955 30.2676 9.53263 30.5395 7.99088C30.8113 6.44913 32.2399 5.41233 33.7302 5.67512C35.2206 5.93791 36.2084 7.40078 35.9366 8.94252ZM34.2703 20.5436C36.1827 19.8475 37.1399 17.6534 36.4081 15.6428C35.6763 13.6323 33.5327 12.5667 31.6203 13.2628C29.7078 13.9589 28.7507 16.153 29.4825 18.1635C30.2142 20.1741 32.3578 21.2396 34.2703 20.5436ZM42.9039 23.9253C44.8965 25.9179 45.076 28.9691 43.3048 30.7403C41.5336 32.5115 38.4824 32.332 36.4898 30.3394C34.4972 28.3468 34.3177 25.2956 36.0889 23.5244C37.8601 21.7533 40.9113 21.9327 42.9039 23.9253ZM48.222 41.0181C50.1611 40.1139 50.9464 37.6939 49.976 35.6129C49.0056 33.5319 46.647 32.578 44.7079 33.4822C42.7688 34.3864 41.9835 36.8064 42.9539 38.8874C43.9243 40.9684 46.2829 41.9223 48.222 41.0181ZM50.3828 49.5045C49.6689 51.466 47.6193 52.5208 45.8049 51.8604C43.9905 51.2 43.0984 49.0746 43.8124 47.1131C44.5263 45.1516 46.5759 44.0968 48.3903 44.7572C50.2047 45.4176 51.0968 47.543 50.3828 49.5045ZM42.3002 58.9575C43.2227 59.88 44.928 59.6704 46.109 58.4894C47.29 57.3084 47.4996 55.6032 46.5771 54.6807C45.6546 53.7582 43.9494 53.9677 42.7683 55.1488C41.5873 56.3298 41.3777 58.035 42.3002 58.9575ZM37.6878 63.606C37.3297 62.622 38.2762 61.3742 39.8018 60.8189C41.3275 60.2636 42.8546 60.6111 43.2127 61.5951C43.5709 62.579 42.6244 63.8268 41.0987 64.3821C39.5731 64.9374 38.0459 64.59 37.6878 63.606ZM35.97 67.8489C36.8437 67.6948 37.4417 66.945 37.3058 66.1741C37.1698 65.4033 36.3514 64.9032 35.4778 65.0573C34.6041 65.2113 34.0061 65.9611 34.142 66.732C34.2779 67.5029 35.0963 68.0029 35.97 67.8489Z" fill="#000000"/>
</svg>
