<svg width="16" height="16" viewBox="0 0 16 16" fill="none" xmlns="http://www.w3.org/2000/svg">
<path fill-rule="evenodd" clip-rule="evenodd" d="M0 8C0 3.86523 3.13682 0.463098 7.16054 0.0435163C4.87956 2.14831 5.17758 3.96959 7.05512 7.64304C8.41345 11.0851 7.77552 12.8577 5.50075 15.6019C2.30643 14.5523 0 11.5455 0 8ZM7.93701 7.64304C9.72985 11.0107 8.77893 12.7942 6.28414 15.8156C6.8369 15.9363 7.41101 16 8 16C12.4183 16 16 12.4183 16 8C16 3.58172 12.4183 0 8 0C7.92379 0 7.84783 0.0010656 7.77213 0.00318271C5.22933 2.03712 5.52967 3.83445 7.93701 7.64304ZM8.3596 1.10766C8.57658 1.0694 8.7231 0.87174 8.68686 0.666173C8.65061 0.460607 8.44532 0.324979 8.22833 0.363239C8.01135 0.4015 7.86483 0.599161 7.90107 0.804727C7.93732 1.01029 8.14261 1.14592 8.3596 1.10766ZM7.9859 1.98723C7.92549 2.32984 7.60803 2.56024 7.27684 2.50184C6.94565 2.44344 6.72614 2.11836 6.78655 1.77575C6.84696 1.43314 7.16442 1.20274 7.49561 1.26114C7.8268 1.31954 8.04631 1.64462 7.9859 1.98723ZM7.61561 4.56524C8.0406 4.41055 8.2533 3.92297 8.09068 3.47618C7.92807 3.0294 7.45172 2.79261 7.02673 2.94729C6.60174 3.10197 6.38904 3.58956 6.55166 4.03634C6.71428 4.48313 7.19062 4.71992 7.61561 4.56524ZM9.53419 5.31674C9.97699 5.75954 10.0169 6.43757 9.62328 6.83117C9.22968 7.22477 8.55165 7.18489 8.10885 6.74209C7.66605 6.29929 7.62616 5.62125 8.01976 5.22765C8.41336 4.83406 9.0914 4.87394 9.53419 5.31674ZM10.716 9.11514C11.1469 8.9142 11.3214 8.37642 11.1058 7.91398C10.8901 7.45154 10.366 7.23955 9.93509 7.44049C9.50418 7.64142 9.32967 8.1792 9.54531 8.64164C9.76095 9.10408 10.2851 9.31608 10.716 9.11514ZM11.1962 11.001C11.0375 11.4369 10.5821 11.6713 10.1789 11.5245C9.77567 11.3778 9.57743 10.9055 9.73608 10.4696C9.89473 10.0337 10.3502 9.79929 10.7534 9.94604C11.1566 10.0928 11.3548 10.5651 11.1962 11.001ZM9.40005 13.1017C9.60505 13.3067 9.98399 13.2601 10.2464 12.9976C10.5089 12.7352 10.5555 12.3563 10.3505 12.1513C10.1455 11.9463 9.76652 11.9928 9.50407 12.2553C9.24162 12.5177 9.19505 12.8967 9.40005 13.1017ZM8.37507 14.1347C8.29548 13.916 8.50581 13.6387 8.84485 13.5153C9.18389 13.3919 9.52324 13.4691 9.60283 13.6878C9.68241 13.9064 9.47208 14.1837 9.13305 14.3071C8.79401 14.4305 8.45465 14.3533 8.37507 14.1347ZM7.99333 15.0775C8.18748 15.0433 8.32038 14.8767 8.29017 14.7054C8.25996 14.5341 8.07809 14.4229 7.88395 14.4572C7.6898 14.4914 7.55691 14.658 7.58711 14.8293C7.61732 15.0006 7.79919 15.1118 7.99333 15.0775Z" fill="#000000"/>
</svg>
