<?xml version="1.0" encoding="UTF-8"?>
<!-- Generated by Pixelmator Pro 2.3.8 -->
<svg width="16" height="16" viewBox="0 0 1181 1181" xmlns="http://www.w3.org/2000/svg" xmlns:xlink="http://www.w3.org/1999/xlink">
    <g id="g2689">
        <path id="path335-5-2" fill="#404040" stroke="none" d="M 510.157684 26.806274 C 231.01268 67.508057 24.045013 306.285034 24 587.682678 C 24.173634 827.002258 174.989243 1040.437378 400.890991 1121.061157 C 424.074005 1096.674438 512.029114 998.415344 545.021301 878.453979 C 574.984253 769.506836 539.250305 637.396484 505.534637 563.014832 C 474.184906 493.852112 403.234222 365.170654 397.6073 249.784607 C 391.605011 126.702515 495.679688 38.476807 510.157684 26.806274 Z"/>
        <path id="path1303" fill="#202020" stroke="none" d="M 589.489929 23.141602 C 577.318726 23.206909 565.152771 23.662354 553.010925 24.506836 C 459.940155 103.165039 423.088165 158.740906 429.957428 254.094604 C 437.094269 353.161194 557.852112 536.665405 599.852051 635.703674 C 623.873535 692.347595 661.074585 781.328064 612.276123 901.912354 C 565.189026 1018.267456 472.967316 1118.418579 452.361725 1139.9375 C 497.205231 1151.167236 543.254944 1156.897095 589.489929 1157 C 740.230408 1157.000122 884.796936 1097.270264 991.386536 990.950317 C 1097.976074 884.630554 1157.857422 740.42981 1157.8573 590.070862 C 1157.857422 439.711792 1097.976074 295.511108 991.386536 189.191284 C 884.796936 82.87146 740.230408 23.141602 589.489929 23.141602 Z M 594.289185 48.296021 C 599.282349 48.391968 603.974487 49.729858 607.89386 52.174805 C 620.223145 59.864014 622.066711 76.403687 612.011719 89.118164 C 601.955688 101.831665 583.80957 105.905518 571.479553 98.217773 C 559.150269 90.528564 557.306702 73.988892 567.361694 61.274414 C 573.865479 53.050049 584.129822 48.102783 594.289185 48.296021 Z M 527.187805 112.584961 L 527.187805 112.59082 C 527.830566 112.584595 528.472961 112.592407 529.114502 112.614258 C 535.55896 112.828979 541.832703 114.454956 547.494934 117.378052 C 557.780884 122.688843 565.403259 131.939819 568.685059 143.095459 C 571.966919 154.251099 570.639282 166.397461 564.994385 176.862305 C 559.35022 187.327454 549.850891 195.254089 538.586487 198.897888 C 527.322144 202.541687 515.215454 201.604248 504.930267 196.291931 C 494.645447 190.97998 487.024353 181.728577 483.743713 170.573059 C 480.463013 159.417419 481.791473 147.271606 487.436798 136.807617 C 495.04071 122.713501 509.456696 113.506836 525.255127 112.655273 C 525.899231 112.617676 526.543579 112.59436 527.187805 112.584961 Z M 522.382629 227.047668 C 525.616455 227.083313 528.859253 227.37915 532.080994 227.932495 C 556.961548 232.2099 577.850891 251.263367 585.007935 276.207764 C 589.700928 292.564575 587.958801 309.73645 580.164673 323.945679 C 572.370544 338.155029 559.162964 348.23761 543.447632 351.975342 C 527.732666 355.713745 510.797089 352.80127 496.366699 343.878601 C 481.93634 334.955872 471.193298 320.753967 466.501007 304.397278 C 461.807953 288.040527 463.55011 270.868591 471.344238 256.659363 C 479.138336 242.450012 492.345917 232.367432 508.061218 228.629761 C 512.720581 227.522949 517.527588 226.991882 522.382629 227.047668 Z M 614.913635 373.701904 C 615.508057 373.702515 616.103333 373.710449 616.699341 373.725708 C 646.061157 374.459167 674.632935 392.742432 690.309448 420.829163 C 701.184631 440.312439 704.719055 462.547913 700.135193 482.643738 C 695.551208 502.739502 683.224487 519.0495 665.86676 527.985413 C 629.722534 546.593384 582.064575 528.78894 559.419739 488.217773 C 536.777039 447.647644 547.720154 399.675781 583.862427 381.067505 C 590.729004 377.530701 598.230103 375.229126 606.090515 374.247192 C 608.414917 373.957092 610.765198 373.783081 613.133728 373.725708 C 613.726013 373.710571 614.319336 373.702515 614.913635 373.701904 Z M 727.816467 545.199829 C 730.919556 545.159668 734.032349 545.341736 737.132996 545.744751 C 774.730835 550.630554 802.950195 586.304749 800.163513 625.426331 C 797.376404 664.547607 764.638855 692.302002 727.041016 687.418457 C 689.443237 682.532593 661.223816 646.858398 664.010498 607.736816 C 666.531738 572.342407 693.774048 545.641846 727.816467 545.199829 Z M 747.712463 725.773865 C 748.50647 725.762695 749.299683 725.77063 750.091553 725.797607 C 777.382446 726.705627 798.776917 749.777832 800.104858 779.733215 C 800.807129 795.564697 795.737976 811.383667 786.012756 823.709473 C 776.287415 836.0354 762.702576 843.858459 748.24707 845.457764 C 718.1474 848.786621 692.563354 824.762695 691.102478 791.797607 C 689.639709 758.832275 712.854309 729.406616 742.954346 726.072998 C 744.539246 725.897583 746.126831 725.797852 747.712463 725.77417 Z M 717.513 871.467102 C 718.004578 871.466797 718.494141 871.474854 718.981628 871.490845 C 724.848267 871.684204 730.339539 873.057983 735.141663 875.533936 C 744.837524 880.53479 751.138062 889.71936 752.657288 901.0672 C 754.176392 912.415039 750.789734 924.99646 743.242188 936.043579 C 735.695251 947.091492 724.605408 955.700317 712.412354 959.975952 C 700.219238 964.251587 687.921997 963.843872 678.226135 958.842346 C 668.530212 953.841492 662.229614 944.65686 660.71051 933.309021 C 659.191284 921.961182 662.578003 909.379761 670.125549 898.332642 C 680.959534 882.473999 698.757446 872.067566 716.032715 871.490845 C 716.527954 871.474854 717.021423 871.466797 717.513 871.467102 Z M 652.062317 974.357666 C 667.624268 974.18689 680.11261 980.617432 684.822876 991.226746 C 692.105957 1007.625977 678.900879 1028.843384 655.328369 1038.61731 C 644.007629 1043.311035 631.76123 1044.683594 621.283447 1042.433105 C 610.805664 1040.182617 602.954956 1034.49353 599.458496 1026.617432 C 592.175476 1010.218201 605.380554 989.000732 628.953064 979.226746 C 636.445984 976.120483 644.416138 974.441223 652.062317 974.357666 Z M 571.291565 1045.630981 C 580.808777 1046.290161 588.455688 1051.532349 591.35199 1059.382935 C 595.827881 1071.519409 587.780334 1086.08374 573.376892 1091.914185 C 566.459473 1094.714233 558.97113 1095.084106 552.55957 1092.942383 C 546.14801 1090.800781 541.338379 1086.322876 539.188843 1080.494141 C 534.712952 1068.357666 542.760498 1053.793457 557.164001 1047.963013 C 561.742737 1046.110474 566.615234 1045.306152 571.291565 1045.630981 Z"/>
    </g>
</svg>
