<svg width="32" height="32" viewBox="0 0 32 32" fill="none" xmlns="http://www.w3.org/2000/svg">
<path fill-rule="evenodd" clip-rule="evenodd" d="M0 16C0 7.73045 6.27363 0.926195 14.3211 0.0870339C9.75913 4.29661 10.3552 7.93919 14.1102 15.2861C16.8269 22.1701 15.551 25.7154 11.0015 31.2037C4.61286 29.1046 0 23.091 0 16ZM15.874 15.2861C19.4597 22.0214 17.5579 25.5885 12.5683 31.6311C13.6738 31.8727 14.822 32 16 32C24.8366 32 32 24.8366 32 16C32 7.16344 24.8366 0 16 0C15.8476 0 15.6957 0.0021312 15.5443 0.00636542C10.4587 4.07424 11.0593 7.6689 15.874 15.2861ZM16.7192 2.21532C17.1532 2.1388 17.4462 1.74348 17.3737 1.33235C17.3012 0.921214 16.8906 0.649958 16.4567 0.726479C16.0227 0.803 15.7297 1.19832 15.8021 1.60946C15.8746 2.02059 16.2852 2.29184 16.7192 2.21532ZM15.9718 3.97446C15.851 4.65968 15.2161 5.12048 14.5537 5.00368C13.8913 4.88689 13.4523 4.23672 13.5731 3.5515C13.6939 2.86628 14.3288 2.40548 14.9912 2.52228C15.6536 2.63907 16.0926 3.28923 15.9718 3.97446ZM15.2312 9.13047C16.0812 8.82111 16.5066 7.84593 16.1814 6.95237C15.8561 6.0588 14.9034 5.58521 14.0535 5.89458C13.2035 6.20394 12.7781 7.17912 13.1033 8.07268C13.4286 8.96625 14.3812 9.43984 15.2312 9.13047ZM19.0684 10.6335C19.954 11.5191 20.0338 12.8751 19.2466 13.6623C18.4594 14.4495 17.1033 14.3698 16.2177 13.4842C15.3321 12.5986 15.2523 11.2425 16.0395 10.4553C16.8267 9.66811 18.1828 9.74788 19.0684 10.6335ZM21.432 18.2303C22.2938 17.8284 22.6428 16.7528 22.2116 15.828C21.7803 14.9031 20.732 14.4791 19.8702 14.881C19.0084 15.2828 18.6593 16.3584 19.0906 17.2833C19.5219 18.2082 20.5702 18.6322 21.432 18.2303ZM22.3924 22.002C22.0751 22.8738 21.1641 23.3426 20.3577 23.0491C19.5513 22.7556 19.1549 21.8109 19.4722 20.9391C19.7895 20.0674 20.7004 19.5986 21.5068 19.8921C22.3132 20.1856 22.7097 21.1302 22.3924 22.002ZM18.8001 26.2033C19.2101 26.6133 19.968 26.5202 20.4929 25.9953C21.0178 25.4704 21.1109 24.7125 20.7009 24.3025C20.2909 23.8925 19.533 23.9857 19.0081 24.5106C18.4832 25.0355 18.3901 25.7933 18.8001 26.2033ZM16.7501 28.2693C16.591 27.832 17.0116 27.2774 17.6897 27.0306C18.3678 26.7838 19.0465 26.9383 19.2057 27.3756C19.3648 27.8129 18.9442 28.3675 18.2661 28.6143C17.588 28.8611 16.9093 28.7066 16.7501 28.2693ZM15.9867 30.1551C16.375 30.0866 16.6408 29.7533 16.5803 29.4107C16.5199 29.0681 16.1562 28.8459 15.7679 28.9143C15.3796 28.9828 15.1138 29.3161 15.1742 29.6587C15.2346 30.0013 15.5984 30.2235 15.9867 30.1551Z" fill="#000000"/>
</svg>
